<svg width="304" height="18" viewBox="0 0 304 18" fill="none" xmlns="http://www.w3.org/2000/svg">
<path d="M2.58982e-05 0.335881C0.368026 0.351881 0.840026 0.36788 1.41603 0.38388C2.00803 0.39988 2.59203 0.40788 3.16803 0.40788C3.93603 0.40788 4.66403 0.39988 5.35203 0.38388C6.05603 0.36788 6.55203 0.35988 6.84003 0.35988C8.63203 0.35988 9.96803 0.71188 10.848 1.41588C11.744 2.11988 12.192 3.02388 12.192 4.12788C12.192 4.68788 12.056 5.24788 11.784 5.80788C11.528 6.35188 11.104 6.84788 10.512 7.29588C9.92003 7.72788 9.13603 8.07188 8.16003 8.32788V8.37588C9.50403 8.51988 10.56 8.80788 11.328 9.23988C12.096 9.67188 12.64 10.1919 12.96 10.7999C13.28 11.3919 13.44 12.0159 13.44 12.6719C13.44 13.6159 13.2 14.4399 12.72 15.1439C12.24 15.8319 11.544 16.3679 10.632 16.7519C9.73603 17.1359 8.65603 17.3279 7.39203 17.3279C7.04003 17.3279 6.50403 17.3199 5.78403 17.3039C5.08003 17.2719 4.22403 17.2559 3.21603 17.2559C2.60803 17.2559 2.00803 17.2639 1.41603 17.2799C0.840026 17.2799 0.368026 17.2959 2.58982e-05 17.3279V16.8479C0.544026 16.8159 0.952026 16.7519 1.22403 16.6559C1.49603 16.5599 1.67203 16.3679 1.75203 16.0799C1.84803 15.7919 1.89603 15.3599 1.89603 14.7839V2.87988C1.89603 2.28788 1.84803 1.85588 1.75203 1.58388C1.67203 1.29588 1.48803 1.10388 1.20003 1.00788C0.928026 0.89588 0.528026 0.83188 2.58982e-05 0.81588V0.335881ZM6.33603 0.81588C5.64803 0.81588 5.19203 0.95188 4.96803 1.22388C4.76003 1.49588 4.65603 2.04788 4.65603 2.87988V14.7839C4.65603 15.3439 4.70403 15.7679 4.80003 16.0559C4.89603 16.3439 5.06403 16.5359 5.30403 16.6319C5.56003 16.7279 5.92803 16.7759 6.40803 16.7759C7.84803 16.7759 8.88803 16.4159 9.52803 15.6959C10.184 14.9599 10.512 13.9199 10.512 12.5759C10.512 11.3439 10.184 10.3919 9.52803 9.71988C8.88803 9.04788 7.82403 8.71188 6.33603 8.71188H4.00803C4.00803 8.71188 4.00803 8.64788 4.00803 8.51988C4.00803 8.37588 4.00803 8.30388 4.00803 8.30388H6.07203C6.95203 8.30388 7.63203 8.12788 8.11203 7.77588C8.59203 7.40788 8.92003 6.92788 9.09603 6.33588C9.27203 5.72788 9.36003 5.07988 9.36003 4.39188C9.36003 3.20788 9.12803 2.31988 8.66403 1.72788C8.20003 1.11988 7.42403 0.81588 6.33603 0.81588ZM22.0275 0.335881V0.81588C21.4835 0.83188 21.0675 0.89588 20.7795 1.00788C20.5075 1.10388 20.3235 1.29588 20.2275 1.58388C20.1315 1.85588 20.0835 2.28788 20.0835 2.87988V14.8799C20.0835 15.4239 20.1235 15.8319 20.2035 16.1039C20.2995 16.3759 20.4755 16.5599 20.7315 16.6559C21.0035 16.7359 21.3875 16.7759 21.8835 16.7759H23.4435C24.1315 16.7759 24.7075 16.6799 25.1715 16.4879C25.6515 16.2959 26.0515 16.0079 26.3715 15.6239C26.6915 15.2399 26.9395 14.7439 27.1155 14.1359C27.2915 13.5279 27.4275 12.8159 27.5235 11.9999H28.0755C28.0275 12.5119 28.0035 13.1839 28.0035 14.0159C28.0035 14.3359 28.0115 14.8079 28.0275 15.4319C28.0595 16.0399 28.1075 16.6719 28.1715 17.3279C27.3555 17.2959 26.4355 17.2799 25.4115 17.2799C24.3875 17.2639 23.4755 17.2559 22.6755 17.2559C22.3075 17.2559 21.8355 17.2559 21.2595 17.2559C20.6835 17.2559 20.0595 17.2639 19.3875 17.2799C18.7315 17.2799 18.0595 17.2879 17.3715 17.3039C16.6995 17.3039 16.0515 17.3119 15.4275 17.3279V16.8479C15.9715 16.8159 16.3795 16.7519 16.6515 16.6559C16.9235 16.5599 17.0995 16.3679 17.1795 16.0799C17.2755 15.7919 17.3235 15.3599 17.3235 14.7839V2.87988C17.3235 2.28788 17.2755 1.85588 17.1795 1.58388C17.0995 1.29588 16.9155 1.10388 16.6275 1.00788C16.3555 0.89588 15.9555 0.83188 15.4275 0.81588V0.335881C15.7955 0.351881 16.2675 0.36788 16.8435 0.38388C17.4355 0.39988 18.0675 0.40788 18.7395 0.40788C19.3475 0.40788 19.9475 0.39988 20.5395 0.38388C21.1475 0.36788 21.6435 0.351881 22.0275 0.335881ZM44.8215 0.335881V0.81588C44.2935 0.84788 43.8935 0.94388 43.6215 1.10388C43.3495 1.26388 43.1655 1.52788 43.0695 1.89588C42.9735 2.24788 42.9255 2.75188 42.9255 3.40788V10.3439C42.9255 11.4319 42.8535 12.3999 42.7095 13.2479C42.5655 14.0959 42.3095 14.8239 41.9415 15.4319C41.5415 16.1039 40.9495 16.6479 40.1655 17.0639C39.3975 17.4639 38.4775 17.6639 37.4055 17.6639C36.6375 17.6639 35.8935 17.5759 35.1735 17.3999C34.4535 17.2239 33.8215 16.8879 33.2775 16.3919C32.7975 15.9599 32.4215 15.4879 32.1495 14.9759C31.8775 14.4639 31.6935 13.8479 31.5975 13.1279C31.5015 12.3919 31.4535 11.4879 31.4535 10.4159V2.87988C31.4535 2.28788 31.4055 1.85588 31.3095 1.58388C31.2295 1.29588 31.0535 1.10388 30.7815 1.00788C30.5095 0.89588 30.1015 0.83188 29.5575 0.81588V0.335881C29.9255 0.351881 30.3975 0.36788 30.9735 0.38388C31.5655 0.39988 32.1975 0.40788 32.8695 0.40788C33.4775 0.40788 34.0775 0.39988 34.6695 0.38388C35.2775 0.36788 35.7735 0.351881 36.1575 0.335881V0.81588C35.6135 0.83188 35.1975 0.89588 34.9095 1.00788C34.6375 1.10388 34.4535 1.29588 34.3575 1.58388C34.2615 1.85588 34.2135 2.28788 34.2135 2.87988V11.1839C34.2135 11.9999 34.2535 12.7519 34.3335 13.4399C34.4295 14.1279 34.5975 14.7279 34.8375 15.2399C35.0935 15.7359 35.4615 16.1279 35.9415 16.4159C36.4375 16.6879 37.0775 16.8239 37.8615 16.8239C39.0455 16.8239 39.9575 16.5599 40.5975 16.0319C41.2535 15.4879 41.7095 14.7519 41.9655 13.8239C42.2375 12.8799 42.3735 11.8079 42.3735 10.6079V3.50388C42.3735 2.81588 42.3095 2.28788 42.1815 1.91988C42.0535 1.55188 41.8295 1.28788 41.5095 1.12788C41.1895 0.95188 40.7335 0.84788 40.1415 0.81588V0.335881C40.4455 0.351881 40.8375 0.36788 41.3175 0.38388C41.7975 0.39988 42.2375 0.40788 42.6375 0.40788C43.0535 0.40788 43.4535 0.39988 43.8375 0.38388C44.2375 0.36788 44.5655 0.351881 44.8215 0.335881ZM58.8278 0.335881C58.7638 0.943881 58.7158 1.53588 58.6838 2.11188C58.6678 2.67188 58.6598 3.10388 58.6598 3.40788C58.6598 3.71188 58.6678 3.99988 58.6838 4.27188C58.6998 4.54388 58.7158 4.76788 58.7318 4.94388H58.1798C58.0678 3.91988 57.8918 3.11188 57.6518 2.51988C57.4278 1.92788 57.0838 1.51188 56.6198 1.27188C56.1718 1.01588 55.5398 0.887879 54.7238 0.887879H53.0678C52.5558 0.887879 52.1638 0.93588 51.8918 1.03188C51.6358 1.11188 51.4598 1.28788 51.3638 1.55988C51.2678 1.81588 51.2198 2.22388 51.2198 2.78388V14.8799C51.2198 15.4239 51.2678 15.8319 51.3638 16.1039C51.4598 16.3759 51.6358 16.5599 51.8918 16.6559C52.1638 16.7359 52.5558 16.7759 53.0678 16.7759H54.6278C55.5398 16.7759 56.2598 16.6319 56.7878 16.3439C57.3318 16.0559 57.7398 15.5839 58.0118 14.9279C58.2998 14.2719 58.5158 13.3759 58.6598 12.2399H59.2118C59.1638 12.7039 59.1398 13.3119 59.1398 14.0639C59.1398 14.3839 59.1478 14.8479 59.1638 15.4559C59.1958 16.0639 59.2438 16.6879 59.3078 17.3279C58.4918 17.2959 57.5718 17.2799 56.5478 17.2799C55.5238 17.2639 54.6118 17.2559 53.8118 17.2559C53.4438 17.2559 52.9718 17.2559 52.3958 17.2559C51.8198 17.2559 51.1958 17.2639 50.5238 17.2799C49.8678 17.2799 49.1958 17.2879 48.5078 17.3039C47.8358 17.3039 47.1878 17.3119 46.5638 17.3279V16.8479C47.1078 16.8159 47.5158 16.7519 47.7878 16.6559C48.0598 16.5599 48.2358 16.3679 48.3158 16.0799C48.4118 15.7919 48.4598 15.3599 48.4598 14.7839V2.87988C48.4598 2.28788 48.4118 1.85588 48.3158 1.58388C48.2358 1.29588 48.0518 1.10388 47.7638 1.00788C47.4918 0.89588 47.0918 0.83188 46.5638 0.81588V0.335881C47.1878 0.351881 47.8358 0.36788 48.5078 0.38388C49.1958 0.38388 49.8678 0.39188 50.5238 0.40788C51.1958 0.40788 51.8198 0.40788 52.3958 0.40788C52.9718 0.40788 53.4438 0.40788 53.8118 0.40788C54.5478 0.40788 55.3798 0.40788 56.3078 0.40788C57.2518 0.39188 58.0918 0.36788 58.8278 0.335881ZM54.8438 8.54388C54.8438 8.54388 54.8438 8.62388 54.8438 8.78388C54.8438 8.94388 54.8438 9.02388 54.8438 9.02388H50.4998C50.4998 9.02388 50.4998 8.94388 50.4998 8.78388C50.4998 8.62388 50.4998 8.54388 50.4998 8.54388H54.8438ZM55.5398 5.37588C55.4758 6.28788 55.4438 6.98388 55.4438 7.46388C55.4598 7.94388 55.4678 8.38388 55.4678 8.78388C55.4678 9.18388 55.4758 9.62388 55.4918 10.1039C55.5078 10.5839 55.5478 11.2799 55.6118 12.1919H55.0598C54.9798 11.6639 54.8758 11.1599 54.7478 10.6799C54.6198 10.1839 54.3878 9.78388 54.0518 9.47988C53.7318 9.17588 53.2278 9.02388 52.5398 9.02388V8.54388C53.0518 8.54388 53.4518 8.43988 53.7398 8.23188C54.0438 8.02388 54.2758 7.75188 54.4358 7.41588C54.5958 7.07988 54.7078 6.73588 54.7718 6.38388C54.8518 6.01588 54.9238 5.67988 54.9878 5.37588H55.5398ZM74.5556 0.335881C77.5156 0.335881 79.7156 1.05588 81.1556 2.49588C82.5956 3.91988 83.3156 5.96788 83.3156 8.63988C83.3156 10.3839 82.9636 11.9119 82.2596 13.2239C81.5556 14.5199 80.5316 15.5279 79.1876 16.2479C77.8596 16.9679 76.2436 17.3279 74.3396 17.3279C74.0996 17.3279 73.7716 17.3199 73.3556 17.3039C72.9556 17.2879 72.5396 17.2799 72.1076 17.2799C71.6756 17.2639 71.2836 17.2559 70.9316 17.2559C70.3236 17.2559 69.7236 17.2639 69.1316 17.2799C68.5556 17.2799 68.0836 17.2959 67.7156 17.3279V16.8479C68.2596 16.8159 68.6676 16.7519 68.9396 16.6559C69.2116 16.5599 69.3876 16.3679 69.4676 16.0799C69.5636 15.7919 69.6116 15.3599 69.6116 14.7839V2.87988C69.6116 2.28788 69.5636 1.85588 69.4676 1.58388C69.3876 1.29588 69.2036 1.10388 68.9156 1.00788C68.6436 0.89588 68.2436 0.83188 67.7156 0.81588V0.335881C68.0836 0.351881 68.5556 0.37588 69.1316 0.40788C69.7236 0.42388 70.3076 0.42388 70.8836 0.40788C71.4596 0.39188 72.0996 0.37588 72.8036 0.35988C73.5236 0.343881 74.1076 0.335881 74.5556 0.335881ZM74.1476 0.767879C73.4116 0.767879 72.9316 0.90388 72.7076 1.17588C72.4836 1.44788 72.3716 1.99988 72.3716 2.83188V14.8319C72.3716 15.6639 72.4836 16.2159 72.7076 16.4879C72.9476 16.7599 73.4356 16.8959 74.1716 16.8959C75.7876 16.8959 77.0436 16.5839 77.9396 15.9599C78.8356 15.3199 79.4676 14.3919 79.8356 13.1759C80.2036 11.9599 80.3876 10.4799 80.3876 8.73588C80.3876 6.94388 80.1876 5.46388 79.7876 4.29588C79.3876 3.11188 78.7316 2.23188 77.8196 1.65588C76.9236 1.06388 75.6996 0.767879 74.1476 0.767879ZM92.3348 0.239881L98.1908 15.3119C98.4148 15.9039 98.6708 16.3039 98.9588 16.5119C99.2628 16.7199 99.5428 16.8319 99.7988 16.8479V17.3279C99.4148 17.2959 98.9588 17.2799 98.4308 17.2799C97.9188 17.2639 97.3988 17.2559 96.8708 17.2559C96.1988 17.2559 95.5748 17.2639 94.9988 17.2799C94.4228 17.2799 93.9588 17.2959 93.6068 17.3279V16.8479C94.4228 16.8159 94.9348 16.6799 95.1428 16.4399C95.3668 16.1839 95.3188 15.6479 94.9988 14.8319L90.6788 3.16788L91.0628 2.73588L87.0788 13.1519C86.7908 13.8719 86.6148 14.4719 86.5508 14.9519C86.5028 15.4319 86.5428 15.8079 86.6708 16.0799C86.8148 16.3519 87.0548 16.5439 87.3908 16.6559C87.7268 16.7679 88.1428 16.8319 88.6388 16.8479V17.3279C88.1588 17.2959 87.6708 17.2799 87.1748 17.2799C86.6948 17.2639 86.2388 17.2559 85.8068 17.2559C85.4228 17.2559 85.0788 17.2639 84.7748 17.2799C84.4868 17.2799 84.2228 17.2959 83.9828 17.3279V16.8479C84.3188 16.7679 84.6548 16.5679 84.9908 16.2479C85.3268 15.9279 85.6468 15.3839 85.9508 14.6159L91.5188 0.239881C91.6468 0.239881 91.7828 0.239881 91.9268 0.239881C92.0708 0.239881 92.2068 0.239881 92.3348 0.239881ZM94.8548 10.4159V10.8959H87.7028L87.9428 10.4159H94.8548ZM115.664 0.335881V0.81588C115.12 0.84788 114.712 0.94388 114.44 1.10388C114.168 1.26388 113.984 1.52788 113.888 1.89588C113.808 2.24788 113.768 2.75188 113.768 3.40788V17.4239C113.64 17.4239 113.512 17.4239 113.384 17.4239C113.256 17.4239 113.12 17.4239 112.976 17.4239L102.8 2.63988V14.1599C102.8 14.8319 102.848 15.3599 102.944 15.7439C103.04 16.1119 103.248 16.3759 103.568 16.5359C103.888 16.6959 104.376 16.7999 105.032 16.8479V17.3279C104.728 17.2959 104.336 17.2799 103.856 17.2799C103.392 17.2639 102.952 17.2559 102.536 17.2559C102.136 17.2559 101.736 17.2639 101.336 17.2799C100.936 17.2799 100.608 17.2959 100.352 17.3279V16.8479C100.88 16.7999 101.28 16.7039 101.552 16.5599C101.824 16.3999 102.008 16.1359 102.104 15.7679C102.2 15.3999 102.248 14.8959 102.248 14.2559V2.87988C102.248 2.28788 102.2 1.85588 102.104 1.58388C102.008 1.29588 101.824 1.10388 101.552 1.00788C101.28 0.89588 100.88 0.83188 100.352 0.81588V0.335881C100.608 0.351881 100.936 0.36788 101.336 0.38388C101.736 0.39988 102.136 0.40788 102.536 0.40788C102.888 0.40788 103.232 0.39988 103.568 0.38388C103.904 0.36788 104.2 0.351881 104.456 0.335881L113.216 12.8639V3.50388C113.216 2.81588 113.16 2.28788 113.048 1.91988C112.952 1.55188 112.744 1.28788 112.424 1.12788C112.104 0.95188 111.624 0.84788 110.984 0.81588V0.335881C111.272 0.351881 111.656 0.36788 112.136 0.38388C112.616 0.39988 113.064 0.40788 113.48 0.40788C113.88 0.40788 114.28 0.39988 114.68 0.38388C115.08 0.36788 115.408 0.351881 115.664 0.335881ZM132.535 0.335881V0.81588C132.007 0.84788 131.607 0.94388 131.335 1.10388C131.063 1.26388 130.879 1.52788 130.783 1.89588C130.687 2.24788 130.639 2.75188 130.639 3.40788V10.3439C130.639 11.4319 130.567 12.3999 130.423 13.2479C130.279 14.0959 130.023 14.8239 129.655 15.4319C129.255 16.1039 128.663 16.6479 127.879 17.0639C127.111 17.4639 126.191 17.6639 125.119 17.6639C124.351 17.6639 123.607 17.5759 122.887 17.3999C122.167 17.2239 121.535 16.8879 120.991 16.3919C120.511 15.9599 120.135 15.4879 119.863 14.9759C119.591 14.4639 119.407 13.8479 119.311 13.1279C119.215 12.3919 119.167 11.4879 119.167 10.4159V2.87988C119.167 2.28788 119.119 1.85588 119.023 1.58388C118.943 1.29588 118.767 1.10388 118.495 1.00788C118.223 0.89588 117.815 0.83188 117.271 0.81588V0.335881C117.639 0.351881 118.111 0.36788 118.687 0.38388C119.279 0.39988 119.911 0.40788 120.583 0.40788C121.191 0.40788 121.791 0.39988 122.383 0.38388C122.991 0.36788 123.487 0.351881 123.871 0.335881V0.81588C123.327 0.83188 122.911 0.89588 122.623 1.00788C122.351 1.10388 122.167 1.29588 122.071 1.58388C121.975 1.85588 121.927 2.28788 121.927 2.87988V11.1839C121.927 11.9999 121.967 12.7519 122.047 13.4399C122.143 14.1279 122.311 14.7279 122.551 15.2399C122.807 15.7359 123.175 16.1279 123.655 16.4159C124.151 16.6879 124.791 16.8239 125.575 16.8239C126.759 16.8239 127.671 16.5599 128.311 16.0319C128.967 15.4879 129.423 14.7519 129.679 13.8239C129.951 12.8799 130.087 11.8079 130.087 10.6079V3.50388C130.087 2.81588 130.023 2.28788 129.895 1.91988C129.767 1.55188 129.543 1.28788 129.223 1.12788C128.903 0.95188 128.447 0.84788 127.855 0.81588V0.335881C128.159 0.351881 128.551 0.36788 129.031 0.38388C129.511 0.39988 129.951 0.40788 130.351 0.40788C130.767 0.40788 131.167 0.39988 131.551 0.38388C131.951 0.36788 132.279 0.351881 132.535 0.335881ZM134.277 0.335881C134.645 0.351881 135.117 0.36788 135.693 0.38388C136.285 0.39988 136.869 0.40788 137.445 0.40788C138.213 0.40788 138.941 0.39988 139.629 0.38388C140.333 0.36788 140.829 0.35988 141.117 0.35988C142.909 0.35988 144.245 0.71188 145.125 1.41588C146.021 2.11988 146.469 3.02388 146.469 4.12788C146.469 4.68788 146.333 5.24788 146.061 5.80788C145.805 6.35188 145.381 6.84788 144.789 7.29588C144.197 7.72788 143.413 8.07188 142.437 8.32788V8.37588C143.781 8.51988 144.837 8.80788 145.605 9.23988C146.373 9.67188 146.917 10.1919 147.237 10.7999C147.557 11.3919 147.717 12.0159 147.717 12.6719C147.717 13.6159 147.477 14.4399 146.997 15.1439C146.517 15.8319 145.821 16.3679 144.909 16.7519C144.013 17.1359 142.933 17.3279 141.669 17.3279C141.317 17.3279 140.781 17.3199 140.061 17.3039C139.357 17.2719 138.501 17.2559 137.493 17.2559C136.885 17.2559 136.285 17.2639 135.693 17.2799C135.117 17.2799 134.645 17.2959 134.277 17.3279V16.8479C134.821 16.8159 135.229 16.7519 135.501 16.6559C135.773 16.5599 135.949 16.3679 136.029 16.0799C136.125 15.7919 136.173 15.3599 136.173 14.7839V2.87988C136.173 2.28788 136.125 1.85588 136.029 1.58388C135.949 1.29588 135.765 1.10388 135.477 1.00788C135.205 0.89588 134.805 0.83188 134.277 0.81588V0.335881ZM140.613 0.81588C139.925 0.81588 139.469 0.95188 139.245 1.22388C139.037 1.49588 138.933 2.04788 138.933 2.87988V14.7839C138.933 15.3439 138.981 15.7679 139.077 16.0559C139.173 16.3439 139.341 16.5359 139.581 16.6319C139.837 16.7279 140.205 16.7759 140.685 16.7759C142.125 16.7759 143.165 16.4159 143.805 15.6959C144.461 14.9599 144.789 13.9199 144.789 12.5759C144.789 11.3439 144.461 10.3919 143.805 9.71988C143.165 9.04788 142.101 8.71188 140.613 8.71188H138.285C138.285 8.71188 138.285 8.64788 138.285 8.51988C138.285 8.37588 138.285 8.30388 138.285 8.30388H140.349C141.229 8.30388 141.909 8.12788 142.389 7.77588C142.869 7.40788 143.197 6.92788 143.373 6.33588C143.549 5.72788 143.637 5.07988 143.637 4.39188C143.637 3.20788 143.405 2.31988 142.941 1.72788C142.477 1.11988 141.701 0.81588 140.613 0.81588ZM161.969 0.335881C161.905 0.943881 161.857 1.53588 161.825 2.11188C161.809 2.67188 161.801 3.10388 161.801 3.40788C161.801 3.71188 161.809 3.99988 161.825 4.27188C161.841 4.54388 161.857 4.76788 161.873 4.94388H161.321C161.209 3.91988 161.033 3.11188 160.793 2.51988C160.569 1.92788 160.225 1.51188 159.761 1.27188C159.313 1.01588 158.681 0.887879 157.865 0.887879H156.209C155.697 0.887879 155.305 0.93588 155.033 1.03188C154.777 1.11188 154.601 1.28788 154.505 1.55988C154.409 1.81588 154.361 2.22388 154.361 2.78388V14.8799C154.361 15.4239 154.409 15.8319 154.505 16.1039C154.601 16.3759 154.777 16.5599 155.033 16.6559C155.305 16.7359 155.697 16.7759 156.209 16.7759H157.769C158.681 16.7759 159.401 16.6319 159.929 16.3439C160.473 16.0559 160.881 15.5839 161.153 14.9279C161.441 14.2719 161.657 13.3759 161.801 12.2399H162.353C162.305 12.7039 162.281 13.3119 162.281 14.0639C162.281 14.3839 162.289 14.8479 162.305 15.4559C162.337 16.0639 162.385 16.6879 162.449 17.3279C161.633 17.2959 160.713 17.2799 159.689 17.2799C158.665 17.2639 157.753 17.2559 156.953 17.2559C156.585 17.2559 156.113 17.2559 155.537 17.2559C154.961 17.2559 154.337 17.2639 153.665 17.2799C153.009 17.2799 152.337 17.2879 151.649 17.3039C150.977 17.3039 150.329 17.3119 149.705 17.3279V16.8479C150.249 16.8159 150.657 16.7519 150.929 16.6559C151.201 16.5599 151.377 16.3679 151.457 16.0799C151.553 15.7919 151.601 15.3599 151.601 14.7839V2.87988C151.601 2.28788 151.553 1.85588 151.457 1.58388C151.377 1.29588 151.193 1.10388 150.905 1.00788C150.633 0.89588 150.233 0.83188 149.705 0.81588V0.335881C150.329 0.351881 150.977 0.36788 151.649 0.38388C152.337 0.38388 153.009 0.39188 153.665 0.40788C154.337 0.40788 154.961 0.40788 155.537 0.40788C156.113 0.40788 156.585 0.40788 156.953 0.40788C157.689 0.40788 158.521 0.40788 159.449 0.40788C160.393 0.39188 161.233 0.36788 161.969 0.335881ZM157.985 8.54388C157.985 8.54388 157.985 8.62388 157.985 8.78388C157.985 8.94388 157.985 9.02388 157.985 9.02388H153.641C153.641 9.02388 153.641 8.94388 153.641 8.78388C153.641 8.62388 153.641 8.54388 153.641 8.54388H157.985ZM158.681 5.37588C158.617 6.28788 158.585 6.98388 158.585 7.46388C158.601 7.94388 158.609 8.38388 158.609 8.78388C158.609 9.18388 158.617 9.62388 158.633 10.1039C158.649 10.5839 158.689 11.2799 158.753 12.1919H158.201C158.121 11.6639 158.017 11.1599 157.889 10.6799C157.761 10.1839 157.529 9.78388 157.193 9.47988C156.873 9.17588 156.369 9.02388 155.681 9.02388V8.54388C156.193 8.54388 156.593 8.43988 156.881 8.23188C157.185 8.02388 157.417 7.75188 157.577 7.41588C157.737 7.07988 157.849 6.73588 157.913 6.38388C157.993 6.01588 158.065 5.67988 158.129 5.37588H158.681ZM170.857 0.335881C171.225 0.351881 171.697 0.36788 172.273 0.38388C172.865 0.39988 173.449 0.40788 174.025 0.40788C174.793 0.40788 175.521 0.39988 176.209 0.38388C176.913 0.36788 177.409 0.35988 177.697 0.35988C179.057 0.35988 180.185 0.53588 181.081 0.887879C181.993 1.23988 182.665 1.73588 183.097 2.37588C183.545 2.99988 183.769 3.71988 183.769 4.53588C183.769 5.03188 183.665 5.55988 183.457 6.11988C183.265 6.66388 182.921 7.17588 182.425 7.65588C181.929 8.11988 181.257 8.50388 180.409 8.80788C179.561 9.11188 178.481 9.26388 177.169 9.26388H174.865V8.78388H176.929C178.001 8.78388 178.817 8.60788 179.377 8.25588C179.953 7.88788 180.337 7.40788 180.529 6.81588C180.737 6.20788 180.841 5.53588 180.841 4.79988C180.841 3.53588 180.569 2.55988 180.025 1.87188C179.481 1.16788 178.537 0.81588 177.193 0.81588C176.505 0.81588 176.049 0.95188 175.825 1.22388C175.617 1.49588 175.513 2.04788 175.513 2.87988V14.7839C175.513 15.3599 175.561 15.7919 175.657 16.0799C175.753 16.3679 175.937 16.5599 176.209 16.6559C176.481 16.7519 176.881 16.8159 177.409 16.8479V17.3279C177.025 17.2959 176.537 17.2799 175.945 17.2799C175.369 17.2639 174.777 17.2559 174.169 17.2559C173.497 17.2559 172.865 17.2639 172.273 17.2799C171.697 17.2799 171.225 17.2959 170.857 17.3279V16.8479C171.401 16.8159 171.809 16.7519 172.081 16.6559C172.353 16.5599 172.529 16.3679 172.609 16.0799C172.705 15.7919 172.753 15.3599 172.753 14.7839V2.87988C172.753 2.28788 172.705 1.85588 172.609 1.58388C172.529 1.29588 172.345 1.10388 172.057 1.00788C171.785 0.89588 171.385 0.83188 170.857 0.81588V0.335881ZM174.913 8.85588C175.729 8.88788 176.385 8.92788 176.881 8.97588C177.377 9.00788 177.793 9.03988 178.129 9.07188C178.465 9.10388 178.777 9.14388 179.065 9.19188C180.265 9.35188 181.137 9.67188 181.681 10.1519C182.241 10.6319 182.625 11.3679 182.833 12.3599L183.433 14.8079C183.577 15.4959 183.729 15.9839 183.889 16.2719C184.065 16.5599 184.321 16.7039 184.657 16.7039C184.913 16.6879 185.121 16.6159 185.281 16.4879C185.457 16.3439 185.641 16.1519 185.833 15.9119L186.169 16.1759C185.801 16.6719 185.417 17.0479 185.017 17.3039C184.617 17.5439 184.081 17.6639 183.409 17.6639C182.721 17.6639 182.129 17.4879 181.633 17.1359C181.153 16.7679 180.809 16.0799 180.601 15.0719L180.121 12.6719C179.977 11.9839 179.817 11.3919 179.641 10.8959C179.465 10.3839 179.217 9.98388 178.897 9.69588C178.593 9.40788 178.145 9.26388 177.553 9.26388H174.961L174.913 8.85588ZM199.275 0.335881C199.211 0.943881 199.163 1.53588 199.131 2.11188C199.115 2.67188 199.107 3.10388 199.107 3.40788C199.107 3.71188 199.115 3.99988 199.131 4.27188C199.147 4.54388 199.163 4.76788 199.179 4.94388H198.627C198.515 3.91988 198.339 3.11188 198.099 2.51988C197.875 1.92788 197.531 1.51188 197.067 1.27188C196.619 1.01588 195.987 0.887879 195.171 0.887879H193.515C193.003 0.887879 192.611 0.93588 192.339 1.03188C192.083 1.11188 191.907 1.28788 191.811 1.55988C191.715 1.81588 191.667 2.22388 191.667 2.78388V14.8799C191.667 15.4239 191.715 15.8319 191.811 16.1039C191.907 16.3759 192.083 16.5599 192.339 16.6559C192.611 16.7359 193.003 16.7759 193.515 16.7759H195.075C195.987 16.7759 196.707 16.6319 197.235 16.3439C197.779 16.0559 198.187 15.5839 198.459 14.9279C198.747 14.2719 198.963 13.3759 199.107 12.2399H199.659C199.611 12.7039 199.587 13.3119 199.587 14.0639C199.587 14.3839 199.595 14.8479 199.611 15.4559C199.643 16.0639 199.691 16.6879 199.755 17.3279C198.939 17.2959 198.019 17.2799 196.995 17.2799C195.971 17.2639 195.059 17.2559 194.259 17.2559C193.891 17.2559 193.419 17.2559 192.843 17.2559C192.267 17.2559 191.643 17.2639 190.971 17.2799C190.315 17.2799 189.643 17.2879 188.955 17.3039C188.283 17.3039 187.635 17.3119 187.011 17.3279V16.8479C187.555 16.8159 187.963 16.7519 188.235 16.6559C188.507 16.5599 188.683 16.3679 188.763 16.0799C188.859 15.7919 188.907 15.3599 188.907 14.7839V2.87988C188.907 2.28788 188.859 1.85588 188.763 1.58388C188.683 1.29588 188.499 1.10388 188.211 1.00788C187.939 0.89588 187.539 0.83188 187.011 0.81588V0.335881C187.635 0.351881 188.283 0.36788 188.955 0.38388C189.643 0.38388 190.315 0.39188 190.971 0.40788C191.643 0.40788 192.267 0.40788 192.843 0.40788C193.419 0.40788 193.891 0.40788 194.259 0.40788C194.995 0.40788 195.827 0.40788 196.755 0.40788C197.699 0.39188 198.539 0.36788 199.275 0.335881ZM195.291 8.54388C195.291 8.54388 195.291 8.62388 195.291 8.78388C195.291 8.94388 195.291 9.02388 195.291 9.02388H190.947C190.947 9.02388 190.947 8.94388 190.947 8.78388C190.947 8.62388 190.947 8.54388 190.947 8.54388H195.291ZM195.987 5.37588C195.923 6.28788 195.891 6.98388 195.891 7.46388C195.907 7.94388 195.915 8.38388 195.915 8.78388C195.915 9.18388 195.923 9.62388 195.939 10.1039C195.955 10.5839 195.995 11.2799 196.059 12.1919H195.507C195.427 11.6639 195.323 11.1599 195.195 10.6799C195.067 10.1839 194.835 9.78388 194.499 9.47988C194.179 9.17588 193.675 9.02388 192.987 9.02388V8.54388C193.499 8.54388 193.899 8.43988 194.187 8.23188C194.491 8.02388 194.723 7.75188 194.883 7.41588C195.043 7.07988 195.155 6.73588 195.219 6.38388C195.299 6.01588 195.371 5.67988 195.435 5.37588H195.987ZM207.487 0.0478802C208.335 0.0478802 208.983 0.14388 209.431 0.335881C209.879 0.52788 210.271 0.73588 210.607 0.95988C210.799 1.07188 210.951 1.15988 211.063 1.22388C211.191 1.27188 211.311 1.29588 211.423 1.29588C211.583 1.29588 211.695 1.20788 211.759 1.03188C211.839 0.85588 211.903 0.59188 211.951 0.239881H212.503C212.487 0.527881 212.463 0.871881 212.431 1.27188C212.415 1.65588 212.399 2.16788 212.383 2.80788C212.383 3.44788 212.383 4.28788 212.383 5.32788H211.831C211.783 4.54388 211.607 3.78388 211.303 3.04788C211.015 2.31188 210.583 1.71188 210.007 1.24788C209.447 0.78388 208.727 0.551879 207.847 0.551879C207.031 0.551879 206.351 0.79988 205.807 1.29588C205.279 1.77588 205.015 2.41588 205.015 3.21588C205.015 3.91988 205.191 4.51188 205.543 4.99188C205.895 5.45588 206.375 5.89588 206.983 6.31188C207.607 6.71188 208.311 7.15988 209.095 7.65588C209.895 8.16788 210.615 8.67988 211.255 9.19188C211.895 9.68788 212.399 10.2399 212.767 10.8479C213.135 11.4559 213.319 12.1919 213.319 13.0559C213.319 14.0959 213.071 14.9599 212.575 15.6479C212.095 16.3199 211.447 16.8239 210.631 17.1599C209.815 17.4959 208.919 17.6639 207.943 17.6639C207.047 17.6639 206.335 17.5679 205.807 17.3759C205.279 17.1839 204.831 16.9839 204.463 16.7759C204.111 16.5519 203.839 16.4399 203.647 16.4399C203.487 16.4399 203.367 16.5279 203.287 16.7039C203.223 16.8799 203.167 17.1439 203.119 17.4959H202.567C202.599 17.1439 202.615 16.7359 202.615 16.2719C202.631 15.7919 202.639 15.1679 202.639 14.3999C202.655 13.6319 202.663 12.6639 202.663 11.4959H203.215C203.279 12.4879 203.455 13.4159 203.743 14.2799C204.047 15.1439 204.503 15.8399 205.111 16.3679C205.735 16.8799 206.559 17.1359 207.583 17.1359C208.127 17.1359 208.631 17.0319 209.095 16.8239C209.559 16.6159 209.935 16.2879 210.223 15.8399C210.511 15.3919 210.655 14.8159 210.655 14.1119C210.655 13.4559 210.495 12.8799 210.175 12.3839C209.871 11.8879 209.439 11.4319 208.879 11.0159C208.335 10.5839 207.695 10.1439 206.959 9.69588C206.207 9.21588 205.503 8.73588 204.847 8.25588C204.191 7.77588 203.663 7.21588 203.263 6.57588C202.879 5.93588 202.687 5.17588 202.687 4.29588C202.687 3.31988 202.911 2.51988 203.359 1.89588C203.823 1.27188 204.415 0.80788 205.135 0.50388C205.871 0.19988 206.655 0.0478802 207.487 0.0478802ZM222.168 0.335881V0.81588C221.64 0.83188 221.24 0.89588 220.968 1.00788C220.696 1.10388 220.512 1.29588 220.416 1.58388C220.32 1.85588 220.272 2.28788 220.272 2.87988V14.7839C220.272 15.3599 220.32 15.7919 220.416 16.0799C220.512 16.3679 220.696 16.5599 220.968 16.6559C221.24 16.7519 221.64 16.8159 222.168 16.8479V17.3279C221.784 17.2959 221.296 17.2799 220.704 17.2799C220.128 17.2639 219.536 17.2559 218.928 17.2559C218.256 17.2559 217.624 17.2639 217.032 17.2799C216.456 17.2799 215.984 17.2959 215.616 17.3279V16.8479C216.16 16.8159 216.568 16.7519 216.84 16.6559C217.112 16.5599 217.288 16.3679 217.368 16.0799C217.464 15.7919 217.512 15.3599 217.512 14.7839V2.87988C217.512 2.28788 217.464 1.85588 217.368 1.58388C217.288 1.29588 217.104 1.10388 216.816 1.00788C216.544 0.89588 216.144 0.83188 215.616 0.81588V0.335881C215.984 0.351881 216.456 0.36788 217.032 0.38388C217.624 0.39988 218.256 0.40788 218.928 0.40788C219.536 0.40788 220.128 0.39988 220.704 0.38388C221.296 0.36788 221.784 0.351881 222.168 0.335881ZM231.11 0.335881C234.07 0.335881 236.27 1.05588 237.71 2.49588C239.15 3.91988 239.87 5.96788 239.87 8.63988C239.87 10.3839 239.518 11.9119 238.814 13.2239C238.11 14.5199 237.086 15.5279 235.742 16.2479C234.414 16.9679 232.798 17.3279 230.894 17.3279C230.654 17.3279 230.326 17.3199 229.91 17.3039C229.51 17.2879 229.094 17.2799 228.662 17.2799C228.23 17.2639 227.838 17.2559 227.486 17.2559C226.878 17.2559 226.278 17.2639 225.686 17.2799C225.11 17.2799 224.638 17.2959 224.27 17.3279V16.8479C224.814 16.8159 225.222 16.7519 225.494 16.6559C225.766 16.5599 225.942 16.3679 226.022 16.0799C226.118 15.7919 226.166 15.3599 226.166 14.7839V2.87988C226.166 2.28788 226.118 1.85588 226.022 1.58388C225.942 1.29588 225.758 1.10388 225.47 1.00788C225.198 0.89588 224.798 0.83188 224.27 0.81588V0.335881C224.638 0.351881 225.11 0.37588 225.686 0.40788C226.278 0.42388 226.862 0.42388 227.438 0.40788C228.014 0.39188 228.654 0.37588 229.358 0.35988C230.078 0.343881 230.662 0.335881 231.11 0.335881ZM230.702 0.767879C229.966 0.767879 229.486 0.90388 229.262 1.17588C229.038 1.44788 228.926 1.99988 228.926 2.83188V14.8319C228.926 15.6639 229.038 16.2159 229.262 16.4879C229.502 16.7599 229.99 16.8959 230.726 16.8959C232.342 16.8959 233.598 16.5839 234.494 15.9599C235.39 15.3199 236.022 14.3919 236.39 13.1759C236.758 11.9599 236.942 10.4799 236.942 8.73588C236.942 6.94388 236.742 5.46388 236.342 4.29588C235.942 3.11188 235.286 2.23188 234.374 1.65588C233.478 1.06388 232.254 0.767879 230.702 0.767879ZM254.352 0.335881C254.288 0.943881 254.24 1.53588 254.208 2.11188C254.192 2.67188 254.184 3.10388 254.184 3.40788C254.184 3.71188 254.192 3.99988 254.208 4.27188C254.224 4.54388 254.24 4.76788 254.256 4.94388H253.704C253.592 3.91988 253.416 3.11188 253.176 2.51988C252.952 1.92788 252.608 1.51188 252.144 1.27188C251.696 1.01588 251.064 0.887879 250.248 0.887879H248.592C248.08 0.887879 247.688 0.93588 247.416 1.03188C247.16 1.11188 246.984 1.28788 246.888 1.55988C246.792 1.81588 246.744 2.22388 246.744 2.78388V14.8799C246.744 15.4239 246.792 15.8319 246.888 16.1039C246.984 16.3759 247.16 16.5599 247.416 16.6559C247.688 16.7359 248.08 16.7759 248.592 16.7759H250.152C251.064 16.7759 251.784 16.6319 252.312 16.3439C252.856 16.0559 253.264 15.5839 253.536 14.9279C253.824 14.2719 254.04 13.3759 254.184 12.2399H254.736C254.688 12.7039 254.664 13.3119 254.664 14.0639C254.664 14.3839 254.672 14.8479 254.688 15.4559C254.72 16.0639 254.768 16.6879 254.832 17.3279C254.016 17.2959 253.096 17.2799 252.072 17.2799C251.048 17.2639 250.136 17.2559 249.336 17.2559C248.968 17.2559 248.496 17.2559 247.92 17.2559C247.344 17.2559 246.72 17.2639 246.048 17.2799C245.392 17.2799 244.72 17.2879 244.032 17.3039C243.36 17.3039 242.712 17.3119 242.088 17.3279V16.8479C242.632 16.8159 243.04 16.7519 243.312 16.6559C243.584 16.5599 243.76 16.3679 243.84 16.0799C243.936 15.7919 243.984 15.3599 243.984 14.7839V2.87988C243.984 2.28788 243.936 1.85588 243.84 1.58388C243.76 1.29588 243.576 1.10388 243.288 1.00788C243.016 0.89588 242.616 0.83188 242.088 0.81588V0.335881C242.712 0.351881 243.36 0.36788 244.032 0.38388C244.72 0.38388 245.392 0.39188 246.048 0.40788C246.72 0.40788 247.344 0.40788 247.92 0.40788C248.496 0.40788 248.968 0.40788 249.336 0.40788C250.072 0.40788 250.904 0.40788 251.832 0.40788C252.776 0.39188 253.616 0.36788 254.352 0.335881ZM250.368 8.54388C250.368 8.54388 250.368 8.62388 250.368 8.78388C250.368 8.94388 250.368 9.02388 250.368 9.02388H246.024C246.024 9.02388 246.024 8.94388 246.024 8.78388C246.024 8.62388 246.024 8.54388 246.024 8.54388H250.368ZM251.064 5.37588C251 6.28788 250.968 6.98388 250.968 7.46388C250.984 7.94388 250.992 8.38388 250.992 8.78388C250.992 9.18388 251 9.62388 251.016 10.1039C251.032 10.5839 251.072 11.2799 251.136 12.1919H250.584C250.504 11.6639 250.4 11.1599 250.272 10.6799C250.144 10.1839 249.912 9.78388 249.576 9.47988C249.256 9.17588 248.752 9.02388 248.064 9.02388V8.54388C248.576 8.54388 248.976 8.43988 249.264 8.23188C249.568 8.02388 249.8 7.75188 249.96 7.41588C250.12 7.07988 250.232 6.73588 250.296 6.38388C250.376 6.01588 250.448 5.67988 250.512 5.37588H251.064ZM272.476 0.335881V0.81588C271.932 0.84788 271.524 0.94388 271.252 1.10388C270.98 1.26388 270.796 1.52788 270.7 1.89588C270.62 2.24788 270.58 2.75188 270.58 3.40788V17.4239C270.452 17.4239 270.324 17.4239 270.196 17.4239C270.068 17.4239 269.932 17.4239 269.788 17.4239L259.612 2.63988V14.1599C259.612 14.8319 259.66 15.3599 259.756 15.7439C259.852 16.1119 260.06 16.3759 260.38 16.5359C260.7 16.6959 261.188 16.7999 261.844 16.8479V17.3279C261.54 17.2959 261.148 17.2799 260.668 17.2799C260.204 17.2639 259.764 17.2559 259.348 17.2559C258.948 17.2559 258.548 17.2639 258.148 17.2799C257.748 17.2799 257.42 17.2959 257.164 17.3279V16.8479C257.692 16.7999 258.092 16.7039 258.364 16.5599C258.636 16.3999 258.82 16.1359 258.916 15.7679C259.012 15.3999 259.06 14.8959 259.06 14.2559V2.87988C259.06 2.28788 259.012 1.85588 258.916 1.58388C258.82 1.29588 258.636 1.10388 258.364 1.00788C258.092 0.89588 257.692 0.83188 257.164 0.81588V0.335881C257.42 0.351881 257.748 0.36788 258.148 0.38388C258.548 0.39988 258.948 0.40788 259.348 0.40788C259.7 0.40788 260.044 0.39988 260.38 0.38388C260.716 0.36788 261.012 0.351881 261.268 0.335881L270.028 12.8639V3.50388C270.028 2.81588 269.972 2.28788 269.86 1.91988C269.764 1.55188 269.556 1.28788 269.236 1.12788C268.916 0.95188 268.436 0.84788 267.796 0.81588V0.335881C268.084 0.351881 268.468 0.36788 268.948 0.38388C269.428 0.39988 269.876 0.40788 270.292 0.40788C270.692 0.40788 271.092 0.39988 271.492 0.38388C271.892 0.36788 272.22 0.351881 272.476 0.335881ZM282.463 -0.00012064C283.519 -0.00012064 284.383 0.15988 285.055 0.47988C285.743 0.78388 286.351 1.14388 286.879 1.55988C287.199 1.79988 287.439 1.83188 287.599 1.65588C287.775 1.46388 287.895 1.02388 287.959 0.335881H288.511C288.479 0.943881 288.455 1.67988 288.439 2.54388C288.423 3.39188 288.415 4.52788 288.415 5.95188H287.863C287.751 5.24788 287.639 4.67188 287.527 4.22388C287.431 3.77588 287.295 3.39188 287.119 3.07188C286.959 2.75188 286.735 2.43988 286.447 2.13588C285.983 1.55988 285.415 1.14388 284.743 0.887879C284.071 0.63188 283.359 0.50388 282.607 0.50388C281.791 0.50388 281.071 0.71188 280.447 1.12788C279.823 1.52788 279.295 2.10388 278.863 2.85588C278.447 3.60788 278.127 4.49588 277.903 5.51988C277.679 6.54388 277.567 7.66388 277.567 8.87988C277.567 10.1279 277.687 11.2639 277.927 12.2879C278.167 13.2959 278.511 14.1679 278.959 14.9039C279.423 15.6239 279.975 16.1839 280.615 16.5839C281.271 16.9679 281.999 17.1599 282.799 17.1599C283.455 17.1599 284.135 17.0319 284.839 16.7759C285.543 16.5039 286.103 16.0959 286.519 15.5519C286.967 15.0719 287.271 14.5359 287.431 13.9439C287.607 13.3359 287.751 12.5119 287.863 11.4719H288.415C288.415 12.9439 288.423 14.1359 288.439 15.0479C288.455 15.9439 288.479 16.7039 288.511 17.3279H287.959C287.895 16.6399 287.783 16.2079 287.623 16.0319C287.479 15.8559 287.231 15.8799 286.879 16.1039C286.287 16.5199 285.655 16.8879 284.983 17.2079C284.327 17.5119 283.479 17.6639 282.439 17.6639C280.855 17.6639 279.471 17.3199 278.287 16.6319C277.103 15.9439 276.183 14.9519 275.527 13.6559C274.871 12.3599 274.543 10.7999 274.543 8.97588C274.543 7.18388 274.879 5.61588 275.551 4.27188C276.239 2.92788 277.175 1.87988 278.359 1.12788C279.543 0.37588 280.911 -0.00012064 282.463 -0.00012064ZM303.447 0.335881C303.383 0.943881 303.335 1.53588 303.303 2.11188C303.287 2.67188 303.279 3.10388 303.279 3.40788C303.279 3.71188 303.287 3.99988 303.303 4.27188C303.319 4.54388 303.335 4.76788 303.351 4.94388H302.799C302.687 3.91988 302.511 3.11188 302.271 2.51988C302.047 1.92788 301.703 1.51188 301.239 1.27188C300.791 1.01588 300.159 0.887879 299.343 0.887879H297.687C297.175 0.887879 296.783 0.93588 296.511 1.03188C296.255 1.11188 296.079 1.28788 295.983 1.55988C295.887 1.81588 295.839 2.22388 295.839 2.78388V14.8799C295.839 15.4239 295.887 15.8319 295.983 16.1039C296.079 16.3759 296.255 16.5599 296.511 16.6559C296.783 16.7359 297.175 16.7759 297.687 16.7759H299.247C300.159 16.7759 300.879 16.6319 301.407 16.3439C301.951 16.0559 302.359 15.5839 302.631 14.9279C302.919 14.2719 303.135 13.3759 303.279 12.2399H303.831C303.783 12.7039 303.759 13.3119 303.759 14.0639C303.759 14.3839 303.767 14.8479 303.783 15.4559C303.815 16.0639 303.863 16.6879 303.927 17.3279C303.111 17.2959 302.191 17.2799 301.167 17.2799C300.143 17.2639 299.231 17.2559 298.431 17.2559C298.063 17.2559 297.591 17.2559 297.015 17.2559C296.439 17.2559 295.815 17.2639 295.143 17.2799C294.487 17.2799 293.815 17.2879 293.127 17.3039C292.455 17.3039 291.807 17.3119 291.183 17.3279V16.8479C291.727 16.8159 292.135 16.7519 292.407 16.6559C292.679 16.5599 292.855 16.3679 292.935 16.0799C293.031 15.7919 293.079 15.3599 293.079 14.7839V2.87988C293.079 2.28788 293.031 1.85588 292.935 1.58388C292.855 1.29588 292.671 1.10388 292.383 1.00788C292.111 0.89588 291.711 0.83188 291.183 0.81588V0.335881C291.807 0.351881 292.455 0.36788 293.127 0.38388C293.815 0.38388 294.487 0.39188 295.143 0.40788C295.815 0.40788 296.439 0.40788 297.015 0.40788C297.591 0.40788 298.063 0.40788 298.431 0.40788C299.167 0.40788 299.999 0.40788 300.927 0.40788C301.871 0.39188 302.711 0.36788 303.447 0.335881ZM299.463 8.54388C299.463 8.54388 299.463 8.62388 299.463 8.78388C299.463 8.94388 299.463 9.02388 299.463 9.02388H295.119C295.119 9.02388 295.119 8.94388 295.119 8.78388C295.119 8.62388 295.119 8.54388 295.119 8.54388H299.463ZM300.159 5.37588C300.095 6.28788 300.063 6.98388 300.063 7.46388C300.079 7.94388 300.087 8.38388 300.087 8.78388C300.087 9.18388 300.095 9.62388 300.111 10.1039C300.127 10.5839 300.167 11.2799 300.231 12.1919H299.679C299.599 11.6639 299.495 11.1599 299.367 10.6799C299.239 10.1839 299.007 9.78388 298.671 9.47988C298.351 9.17588 297.847 9.02388 297.159 9.02388V8.54388C297.671 8.54388 298.071 8.43988 298.359 8.23188C298.663 8.02388 298.895 7.75188 299.055 7.41588C299.215 7.07988 299.327 6.73588 299.391 6.38388C299.471 6.01588 299.543 5.67988 299.607 5.37588H300.159Z" fill="#003148"/>
</svg>
